[B]Agent Vinod (2012) 1 CD DVD Rip Xvid MP3 Subs[/B]
 
http://www.shotpix.com/images/05520232077093521974.jpg


[B]INFO[/B]

[code]http://www.imdb.com/title/tt1395025/[/code]

[code]General
Complete name                            : Agent Vinod (2012) 1 CD DVD Rip Xvid MP3 Subs.avi
Format                                   : AVI
Format/Info                              : Audio Video Interleave
File size                                : 696 MiB
Duration                                 : 2h 36mn
Overall bit rate                         : 622 Kbps
Writing library                          : VirtualDub build 32661/release

Video
ID                                       : 0
Format                                   : MPEG-4 Visual
Format profile                           : Advanced Simple@L5
Format settings, BVOP                    : 2
Format settings, QPel                    : Yes
Format settings, GMC                     : No warppoints
Format settings, Matrix                  : Default (H.263)
Codec ID                                 : XVID
Codec ID/Hint                            : XviD
Duration                                 : 2h 36mn
Bit rate                                 : 533 Kbps
Width                                    : 608 pixels
Height                                   : 256 pixels
Display aspect ratio                     : 2.40:1
Frame rate                               : 23.976 fps
Color space                              : YUV
Chroma subsampling                       : 4:2:0
Bit depth                                : 8 bits
Scan type                                : Progressive
Compression mode                         : Lossy
Bits/(Pixel*Frame)                       : 0.143
Stream size                              : 596 MiB (86%)
Writing library                          : XviD 1.2.1 (UTC 2008-12-04)

Audio
ID                                       : 1
Format                                   : MPEG Audio
Format version                           : Version 1
Format profile                           : Layer 3
Mode                                     : Joint stereo
Mode extension                           : MS Stereo
Codec ID                                 : 55
Codec ID/Hint                            : MP3
Duration                                 : 2h 36mn
Bit rate mode                            : Constant
Bit rate                                 : 80.0 Kbps
Channel(s)                               : 2 channels
Sampling rate                            : 32.0 KHz
Compression mode                         : Lossy
Stream size                              : 89.5 MiB (13%)
Alignment                                : Split accross interleaves
Interleave, duration                     : 42 ms (1.00 video frame)
Interleave, preload duration             : 500 ms
Writing library                          : LAME3.99r
Encoding settings                        : -m j -V 4 -q 2 -lowpass 13.5 -b 80[/code]


[B]SCREEN SHOTS[/B]
 
http://www.shotpix.com/images/81637084967304932942.png
 
http://www.shotpix.com/images/09326724401121521167.png
 
http://www.shotpix.com/images/39969195157018479838.png
 
http://www.shotpix.com/images/64791618117415998217.png
 
http://www.shotpix.com/images/80349941437515111545.png
 
http://www.shotpix.com/images/15485956960531046340.png


*** PLEASE SEED AFTER DOWNLOAD ***

** DO GIVE A COMMENT IF YA LIKED THIS SHARE **